####
#
# OBJ File Generated by Meshlab
#
####
# Object test.obj
#
# Vertices: 6
# Faces: 7
#
####
vn 1.360350 0.785398 -1.047198
v 1.000000 1.000000 0.000000
vn -1.360350 0.785398 -1.047198
v -1.000000 1.000000 0.000000
vn 0.000000 -1.570796 -1.047197
v 0.000000 -0.732051 0.000000
vn 1.360350 0.785398 0.000000
v 1.000000 1.000000 1.000000
vn -1.360350 0.785398 0.000000
v -1.000000 1.000000 1.000000
vn 0.000000 -1.570796 0.000000
v 0.000000 -0.732051 1.000000
# 6 vertices, 0 vertices normals

f 2//2 1//1 3//3
f 1//1 6//6 3//3
f 1//1 4//4 6//6
f 2//2 3//3 6//6
f 2//2 6//6 5//5
f 1//1 5//5 4//4
f 1//1 2//2 5//5
# 7 faces, 0 coords texture

# End of File
